/* XPM */
static const char * play_xpm[] = {
"18 18 3 1",
" 	c None",
".	c #cccccc",
".	c #999999",
"                  ",
"                  ",
"   #              ",
"   .#             ",
"   ...#           ",
"   .....#         ",
"   ......#        ",
"   ........#      ",
"   ..........#    ",
"   ..........#    ",
"   ........#      ",
"   .......#       ",
"   .....#         ",
"   ...#           ",
"   .#             ",
"   #              ",
"                  ",
"                  "};
