/* XPM */
static const char * seq192_xpm[] = {
"132 32 3 1",
" 	c None",
".	c None",
"+	c #cccccc",
"....................................................................................................................................",
"....................................................................................................................................",
"....................................................................................................................................",
"....................................................................................................................................",
"....................................................................................................................................",
"....................................................................................................................................",
"....++++++++++++++++++++....++++++++++++++++++++....++++++++++++++++++++....++++....++++++++++++++++++++....++++++++++++++++++++....",
"....++++++++++++++++++++....++++++++++++++++++++....++++++++++++++++++++....++++....++++++++++++++++++++....++++++++++++++++++++....",
"....++++++++++++++++++++....++++++++++++++++++++....++++++++++++++++++++....++++....++++++++++++++++++++....++++++++++++++++++++....",
"....++++++++++++++++++++....++++++++++++++++++++....++++++++++++++++++++....++++....++++++++++++++++++++....++++++++++++++++++++....",
"....++++....................++++....................++++............++++....++++....++++............++++....................++++....",
"....++++....................++++....................++++............++++....++++....++++............++++....................++++....",
"....++++....................++++....................++++............++++....++++....++++............++++....................++++....",
"....++++....................++++....................++++............++++....++++....++++............++++....................++++....",
"....++++++++++++++++++++....++++++++++++++++++++....++++............++++....++++....++++++++++++++++++++....++++++++++++++++++++....",
"....++++++++++++++++++++....++++++++++++++++++++....++++............++++....++++....++++++++++++++++++++....++++++++++++++++++++....",
"....++++++++++++++++++++....++++++++++++++++++++....++++............++++....++++....++++++++++++++++++++....++++++++++++++++++++....",
"....++++++++++++++++++++....++++++++++++++++++++....++++............++++....++++....++++++++++++++++++++....++++++++++++++++++++....",
"....................++++....++++....................++++....++++....++++....++++....................++++....++++....................",
"....................++++....++++....................++++....++++....++++....++++....................++++....++++....................",
"....................++++....++++....................++++....++++....++++....++++....................++++....++++....................",
"....................++++....++++....................++++....++++....++++....++++....................++++....++++....................",
"....++++++++++++++++++++....++++++++++++++++++++....++++++++++++++++++++....++++....++++++++++++++++++++....++++++++++++++++++++....",
"....++++++++++++++++++++....++++++++++++++++++++....++++++++++++++++++++....++++....++++++++++++++++++++....++++++++++++++++++++....",
"....++++++++++++++++++++....++++++++++++++++++++....++++++++++++++++++++....++++....++++++++++++++++++++....++++++++++++++++++++....",
"....++++++++++++++++++++....++++++++++++++++++++....++++++++++++++++++++....++++....++++++++++++++++++++....++++++++++++++++++++....",
"............................................................++++....................................................................",
"............................................................++++....................................................................",
"............................................................++++....................................................................",
"............................................................++++....................................................................",
"....................................................................................................................................",
"...................................................................................................................................."};
