/* XPM */
static const char * seq24_xpm[] = {
"132 32 3 1",
" 	c None",
".	c None",
"+	c #cccccc",
"....................................................................................................................................",
"....................................................................................................................................",
"....................................................................................................................................",
"....................................................................................................................................",
"....................................................................................................................................",
"....................................................................................................................................",
"....++++++++++++++++++++....++++++++++++++++++++....++++++++++++++++++++....++++....++++++++++++++++++++....++++++++++++++++++++....",
"....++++++++++++++++++++....++++++++++++++++++++....++++++++++++++++++++....++++....++++++++++++++++++++....++++++++++++++++++++....",
"....++++++++++++++++++++....++++++++++++++++++++....++++++++++++++++++++....++++....++++++++++++++++++++....++++++++++++++++++++....",
"....++++++++++++++++++++....++++++++++++++++++++....++++++++++++++++++++....++++....++++++++++++++++++++....++++++++++++++++++++....",
"....++++....................++++....................++++............++++....++++....++++............++++....................++++....",
"....++++....................++++....................++++............++++....++++....++++............++++....................++++....",
"....++++....................++++....................++++............++++....++++....++++............++++....................++++....",
"....++++....................++++....................++++............++++....++++....++++............++++....................++++....",
"....++++++++++++++++++++....++++++++++++++++++++....++++............++++....++++....++++++++++++++++++++....++++++++++++++++++++....",
"....++++++++++++++++++++....++++++++++++++++++++....++++............++++....++++....++++++++++++++++++++....++++++++++++++++++++....",
"....++++++++++++++++++++....++++++++++++++++++++....++++............++++....++++....++++++++++++++++++++....++++++++++++++++++++....",
"....++++++++++++++++++++....++++++++++++++++++++....++++............++++....++++....++++++++++++++++++++....++++++++++++++++++++....",
"....................++++....++++....................++++....++++....++++....++++....................++++....++++....................",
"....................++++....++++....................++++....++++....++++....++++....................++++....++++....................",
"....................++++....++++....................++++....++++....++++....++++....................++++....++++....................",
"....................++++....++++....................++++....++++....++++....++++....................++++....++++....................",
"....++++++++++++++++++++....++++++++++++++++++++....++++++++++++++++++++....++++....++++++++++++++++++++....++++++++++++++++++++....",
"....++++++++++++++++++++....++++++++++++++++++++....++++++++++++++++++++....++++....++++++++++++++++++++....++++++++++++++++++++....",
"....++++++++++++++++++++....++++++++++++++++++++....++++++++++++++++++++....++++....++++++++++++++++++++....++++++++++++++++++++....",
"....++++++++++++++++++++....++++++++++++++++++++....++++++++++++++++++++....++++....++++++++++++++++++++....++++++++++++++++++++....",
"............................................................++++....................................................................",
"............................................................++++....................................................................",
"............................................................++++....................................................................",
"............................................................++++....................................................................",
"....................................................................................................................................",
"...................................................................................................................................."};
