/* XPM */
static const char * seq24_xpm[] = {
"132 36 3 1",
" 	c None",
".	c None",
"+	c #cccccc",
"....................................................................................................................................",
"....................................................................................................................................",
"....................................................................................................................................",
"....................................................................................................................................",
"....................................................................................................................................",
"....................................................................................................................................",
"....................................................................................................................................",
"....................................................................................................................................",
"....++++++++++++++++++++....++++++++++++++++++++....++++++++++++++++++++....++++....++++++++++++++++++++....++++++++++++++++++++....",
"....++++++++++++++++++++....++++++++++++++++++++....++++++++++++++++++++....++++....++++++++++++++++++++....++++++++++++++++++++....",
"....++++++++++++++++++++....++++++++++++++++++++....++++++++++++++++++++....++++....++++++++++++++++++++....++++++++++++++++++++....",
"....++++++++++++++++++++....++++++++++++++++++++....++++++++++++++++++++....++++....++++++++++++++++++++....++++++++++++++++++++....",
"....++++....................++++....................++++............++++....++++....++++............++++....................++++....",
"....++++....................++++....................++++............++++....++++....++++............++++....................++++....",
"....++++....................++++....................++++............++++....++++....++++............++++....................++++....",
"....++++....................++++....................++++............++++....++++....++++............++++....................++++....",
"....++++++++++++++++++++....++++++++++++++++++++....++++............++++....++++....++++++++++++++++++++....++++++++++++++++++++....",
"....++++++++++++++++++++....++++++++++++++++++++....++++............++++....++++....++++++++++++++++++++....++++++++++++++++++++....",
"....++++++++++++++++++++....++++++++++++++++++++....++++............++++....++++....++++++++++++++++++++....++++++++++++++++++++....",
"....++++++++++++++++++++....++++++++++++++++++++....++++............++++....++++....++++++++++++++++++++....++++++++++++++++++++....",
"....................++++....++++....................++++....++++....++++....++++....................++++....++++....................",
"....................++++....++++....................++++....++++....++++....++++....................++++....++++....................",
"....................++++....++++....................++++....++++....++++....++++....................++++....++++....................",
"....................++++....++++....................++++....++++....++++....++++....................++++....++++....................",
"....++++++++++++++++++++....++++++++++++++++++++....++++++++++++++++++++....++++....++++++++++++++++++++....++++++++++++++++++++....",
"....++++++++++++++++++++....++++++++++++++++++++....++++++++++++++++++++....++++....++++++++++++++++++++....++++++++++++++++++++....",
"....++++++++++++++++++++....++++++++++++++++++++....++++++++++++++++++++....++++....++++++++++++++++++++....++++++++++++++++++++....",
"....++++++++++++++++++++....++++++++++++++++++++....++++++++++++++++++++....++++....++++++++++++++++++++....++++++++++++++++++++....",
"............................................................++++....................................................................",
"............................................................++++....................................................................",
"............................................................++++....................................................................",
"............................................................++++....................................................................",
"....................................................................................................................................",
"....................................................................................................................................",
"....................................................................................................................................",
"...................................................................................................................................."};
